<svg id="Capa_1" data-name="Capa 1" xmlns="http://www.w3.org/2000/svg" viewBox="0 0 90.71 90.71"><defs><style>.cls-1{fill:#666;}</style></defs><title>link-ext</title><path class="cls-1" d="M69.65,51.73H66.41a1.59,1.59,0,0,0-1.16.45,1.54,1.54,0,0,0-.46,1.15V69.27a7.63,7.63,0,0,1-2.38,5.63,7.86,7.86,0,0,1-5.72,2.34H14.58A7.86,7.86,0,0,1,8.86,74.9a7.61,7.61,0,0,1-2.38-5.63V27.81a7.62,7.62,0,0,1,2.38-5.63,7.87,7.87,0,0,1,5.72-2.34H50.21a1.59,1.59,0,0,0,1.16-.45,1.54,1.54,0,0,0,.46-1.15V15.06a1.54,1.54,0,0,0-.46-1.14,1.59,1.59,0,0,0-1.16-.45H14.58a14.16,14.16,0,0,0-10.3,4.21A13.72,13.72,0,0,0,0,27.81V69.27A13.71,13.71,0,0,0,4.28,79.41a14.15,14.15,0,0,0,10.3,4.21H56.69A14.16,14.16,0,0,0,67,79.41a13.71,13.71,0,0,0,4.28-10.14V53.33a1.53,1.53,0,0,0-.46-1.15,1.59,1.59,0,0,0-1.16-.45Zm0,0"/><path class="cls-1" d="M89.75,8a3.14,3.14,0,0,0-2.28-.95H61.55A3.14,3.14,0,0,0,59.27,8a3.1,3.1,0,0,0,0,4.49l8.91,8.77-33,32.49a1.55,1.55,0,0,0,0,2.29L41,61.75a1.61,1.61,0,0,0,2.33,0l33-32.49L85.19,38a3.22,3.22,0,0,0,4.56,0,3,3,0,0,0,1-2.24V10.28a3,3,0,0,0-1-2.24Zm0,0"/></svg>