<?xml version="1.0" encoding="utf-8"?>
<!-- Generator: Adobe Illustrator 16.0.0, SVG Export Plug-In . SVG Version: 6.00 Build 0)  -->
<!DOCTYPE svg PUBLIC "-//W3C//DTD SVG 1.1//EN" "http://www.w3.org/Graphics/SVG/1.1/DTD/svg11.dtd">
<svg version="1.1" id="レイヤー_1" xmlns="http://www.w3.org/2000/svg" xmlns:xlink="http://www.w3.org/1999/xlink" x="0px"
	 y="0px" width="141.732px" height="10.771px" viewBox="0 0 141.732 10.771" enable-background="new 0 0 141.732 10.771"
	 xml:space="preserve">
<g>
	<path fill="#231815" d="M110.301,0.455v1.761h3.233v8.163h1.965V2.216h3.237V0.455H110.301z"/>
	<path fill="#231815" d="M105.526,0.453l-3.523,9.927h2.185l0.598-1.942h3.606l0.599,1.943h2.083l-3.414-9.928H105.526z
		 M107.857,6.762h-2.548l1.283-4.124L107.857,6.762z"/>
	<path fill="#231815" d="M26.121,9.306c1.805,0,2.848-1.731,2.848-3.866c0-2.135-1.027-3.865-2.848-3.865
		c-1.984,0-2.848,1.73-2.848,3.865C23.273,7.574,24.137,9.306,26.121,9.306z M21.375,5.394c0-2.961,1.673-5.378,4.746-5.378
		c3.072,0,4.746,2.417,4.746,5.378c0,2.964-1.673,5.378-4.746,5.378C23.048,10.771,21.375,8.357,21.375,5.394z"/>
	<path fill="#231815" d="M59.496,9.306c1.805,0,2.848-1.731,2.848-3.866c0-2.135-1.026-3.865-2.848-3.865
		c-1.983,0-2.847,1.73-2.847,3.865C56.649,7.574,57.513,9.306,59.496,9.306z M54.75,5.394c0-2.961,1.673-5.378,4.746-5.378
		s4.746,2.417,4.746,5.378c0,2.964-1.673,5.378-4.746,5.378S54.75,8.357,54.75,5.394z"/>
	<path fill="#231815" d="M87.686,9.306c1.806,0,2.849-1.731,2.849-3.866c0-2.135-1.027-3.865-2.849-3.865
		c-1.983,0-2.848,1.73-2.848,3.865C84.838,7.574,85.703,9.306,87.686,9.306z M82.94,5.394c0-2.961,1.673-5.378,4.746-5.378
		c3.072,0,4.746,2.417,4.746,5.378c0,2.964-1.674,5.378-4.746,5.378C84.613,10.771,82.94,8.357,82.94,5.394z"/>
	<path fill="#231815" d="M13.114,0.451v9.928h1.949V6.946l1.116-1.104l3.208,4.536h2.145L17.5,4.664l4.294-4.213h-2.582l-4.15,3.951
		V0.451H13.114z"/>
	<path fill="#231815" d="M65.416,0.454v9.926h1.952V6.438h2.464c0,0,1.129-0.071,1.129,2.704c0,0-0.118,1.24,0.301,1.238h1.902
		c-0.419,0.002-0.301-1.238-0.301-1.238c0-3.547-1.757-3.495-1.757-3.495s1.988-0.457,1.988-2.511c0-2.215-2.104-2.683-2.418-2.683
		H65.416z M67.368,1.958h2.389c1.291,0.017,1.361,1.434,1.361,1.434c0,1.118-1.262,1.463-1.378,1.463c-0.233,0-2.372,0-2.372,0
		V1.958z"/>
	<path fill="#231815" d="M93.611,0.454v9.926h1.953V6.438h2.465c0,0,1.128-0.071,1.128,2.704c0,0-0.117,1.24,0.302,1.238h1.9
		c-0.419,0.002-0.3-1.238-0.3-1.238c0-3.547-1.758-3.495-1.758-3.495s1.988-0.457,1.988-2.511c0-2.215-2.104-2.683-2.418-2.683
		H93.611z M95.564,1.958h2.389c1.291,0.017,1.361,1.434,1.361,1.434c0,1.118-1.263,1.463-1.379,1.463c-0.232,0-2.371,0-2.371,0
		V1.958z"/>
	<path fill="#231815" d="M74.511,0.453v9.927h1.952v-3.44h2.725c0,0,2.947-0.117,2.947-3.208c0,0-0.052-3.278-2.929-3.278H74.511z
		 M79.073,1.963C79.073,1.963,77.8,1.963,79.073,1.963c1.447,0,1.377,1.716,1.377,1.716c0,1.58-1.377,1.668-1.377,1.668h-2.498
		V1.963H79.073z"/>
	<path fill="#231815" d="M5.988,7.193L2.087,0.455H0v9.925h1.966V3.568l3.921,6.812h2.074V0.455H5.988V7.193z"/>
	<path fill="#231815" d="M38.051,7.193l-3.9-6.739h-2.087v9.925h1.965V3.568l3.921,6.812h2.074V0.455h-1.973V7.193z"/>
	<path fill="#231815" d="M127.829,9.306c1.805,0,2.848-1.731,2.848-3.866c0-2.135-1.026-3.865-2.848-3.865
		c-1.984,0-2.848,1.73-2.848,3.865C124.981,7.574,125.844,9.306,127.829,9.306z M123.083,5.394c0-2.961,1.673-5.378,4.746-5.378
		c3.072,0,4.745,2.417,4.745,5.378c0,2.964-1.673,5.378-4.745,5.378C124.755,10.771,123.083,8.357,123.083,5.394z"/>
	<path fill="#231815" d="M139.76,7.193l-3.901-6.739h-2.087v9.925h1.965V3.568l3.921,6.812h2.074V0.455h-1.972V7.193z"/>
	<path fill="#231815" d="M11.544,10.38V0.456H9.581v9.924H11.544z"/>
	<path fill="#231815" d="M121.909,10.38V0.456h-1.963v9.924H121.909z"/>
	<path fill="#231815" d="M51.839,7.25c-0.39,1.199-1,1.867-2.262,1.867c-1.502,0-2.737-1.709-2.72-3.693
		c0.018-2.135,1.131-3.754,2.72-3.754c1.238,0,1.687,0.56,2.076,1.762l2.19,0.001C53.297,1.342,51.902,0,49.475,0
		c-3.073,0-4.588,2.417-4.588,5.378c0,2.962,1.515,5.378,4.588,5.378c2.384,0,3.768-1.472,4.34-3.507H51.839z"/>
</g>
</svg>
